<svg xmlns="http://www.w3.org/2000/svg" width="164" height="164" enable-background="new 0 0 164 164" viewBox="0 0 164 164" id="globe"><path fill-rule="evenodd" d="M66.415,122.583c29.669,11.915,63.801-2.657,75.715-32.327
	c11.916-29.669-2.657-63.801-32.326-75.715c-29.67-11.915-63.801,2.657-75.715,32.327C22.172,76.537,36.745,110.668,66.415,122.583
	L66.415,122.583z M20.732,89.919C7.853,49.9,33.519,7.432,75.083,0.32l2.315,7.189c-37.641,5.813-61.162,43.969-49.53,80.114
	c11.633,36.145,52.993,53.419,86.958,36.188l2.315,7.188c-8.905,4.338-18.235,6.579-27.466,6.949v7.211
	c13.495,1.542,24.059,9.225,25.711,18.84H53.965c1.652-9.615,12.216-17.298,25.71-18.84v-7.54
	C53.37,134.851,29.487,117.122,20.732,89.919L20.732,89.919z M82.411,16.34c10.675-1.168,21.328,1.005,30.561,5.962l-17.063,7.284
	C91.91,24.958,87.418,20.54,82.411,16.34L82.411,16.34z M60.174,24.08c2.3-1.44,4.739-2.721,7.313-3.819
	c2.573-1.098,5.185-1.976,7.815-2.64c5.78,4.454,10.849,9.211,15.261,14.249L59.911,44.957
	C59.321,38.287,59.395,31.334,60.174,24.08L60.174,24.08z M37.502,54.525c2.807-10.097,8.604-19.294,16.832-26.196
	c-0.43,6.521-0.346,12.821,0.231,18.911L37.502,54.525L37.502,54.525z M100.356,35.091l19.543-8.344
	c6.173,4.684,11.381,10.794,15.07,18.105l-23.013,9.826C108.877,47.813,105.023,41.278,100.356,35.091L100.356,35.091z
	 M60.787,51.985l34.247-14.622c4.666,6.188,8.437,12.758,11.398,19.674L67.113,73.825C64.167,66.902,62.029,59.635,60.787,51.985
	L60.787,51.985z M38.574,86.01c-2.727-7.722-3.539-15.709-2.653-23.409l19.542-8.343c1.242,7.65,3.296,14.954,6.125,21.926
	L38.574,86.01L38.574,86.01z M114.533,60.98l23.11-9.867c2.728,7.721,3.539,15.709,2.652,23.408l-20.161,8.607
	C119.005,75.432,117.149,68.043,114.533,60.98L114.533,60.98z M69.996,79.996l38.898-16.607c2.481,7.12,4.184,14.575,5.184,22.327
	L82.536,99.183C77.63,93.098,73.423,86.713,69.996,79.996L69.996,79.996z M56.319,110.376c-6.174-4.684-11.381-10.795-15.071-18.105
	l23.11-9.866c3.292,6.774,7.344,13.224,12.122,19.364L56.319,110.376L56.319,110.376z M120.96,90.18l17.756-7.58
	c-2.872,10.33-8.874,19.718-17.405,26.67C121.619,102.726,121.507,96.359,120.96,90.18L120.96,90.18z M94.547,120.697
	c-10.922,1.352-21.854-0.807-31.302-5.876l17.756-7.581C85.086,111.908,89.605,116.393,94.547,120.697L94.547,120.697z
	 M108.73,116.863c-2.145,0.915-4.316,1.677-6.503,2.29c-5.477-4.653-10.514-9.494-15.062-14.546l27.63-11.796
	c0.503,6.778,0.513,13.765,0.087,20.938C112.929,114.906,110.876,115.947,108.73,116.863z" clip-rule="evenodd"></path></svg>