<svg xmlns="http://www.w3.org/2000/svg" version="1" viewBox="0 0 64 64" id="Globe"><path d="M46.641 49.577a1 1 0 0 0-1.762.945c.078.146.121.316.121.478a.978.978 0 0 1-.306.712A.957.957 0 0 1 44 52H32a1 1 0 1 0 0 2h12c.811 0 1.565-.317 2.107-.874.577-.56.893-1.315.893-2.126a3.02 3.02 0 0 0-.359-1.423z" fill="#ffffff" class="color000000 svgShape"></path><path d="M43 62a.923.923 0 0 1-.091-.004l-22-2L17 60a1 1 0 0 1-1-1v-9a1 1 0 0 1 1-1h3.21c1.076-2.617 6.078-5 9.79-5 3.937 0 7.125 1.691 7.847 4H44c.734 0 1.431.271 1.97.74l11.718-7.301a.958.958 0 0 1 .109-.059 2.95 2.95 0 0 1 2.837.192A2.948 2.948 0 0 1 62 44.066c0 .89-.388 1.726-1.064 2.297L43.665 61.747A1 1 0 0 1 43 62zm-25-4h3l21.658 1.965 16.967-15.111A1.02 1.02 0 0 0 60 44.07a.947.947 0 0 0-.443-.813.94.94 0 0 0-.872-.083l-12.396 7.724a1 1 0 0 1-1.406-.367A1.01 1.01 0 0 0 44 50h-7a1 1 0 0 1-1-1c0-1.419-2.464-3-6-3-3.682 0-8 2.644-8 4a1 1 0 0 1-1 1h-3v7z" fill="#ffffff" class="color000000 svgShape"></path><path d="M15 62h-2a1 1 0 0 1-1-1V48a1 1 0 0 1 1-1h2c1.654 0 3 1.346 3 3v9c0 1.654-1.346 3-3 3zm-1-2h1c.552 0 1-.449 1-1v-9c0-.551-.448-1-1-1h-1v11z" fill="#ffffff" class="color000000 svgShape"></path><path d="M13 62H3a1 1 0 0 1-1-1V48a1 1 0 0 1 1-1h10a1 1 0 0 1 1 1v13a1 1 0 0 1-1 1zm-9-2h8V49H4v11zm36.679-44.85a.999.999 0 0 1-.944-.674 20.746 20.746 0 0 0-.667-1.707c-1.654-3.739-4.254-6.825-7.519-8.928A1 1 0 0 1 32.09 2h.005c6.744.03 12.977 3.43 16.673 9.094a1.004 1.004 0 0 1-.35 1.42c-2.009 1.121-4.615 2.026-7.539 2.617a1.05 1.05 0 0 1-.2.019zM35.452 4.331c2.281 2.082 4.135 4.668 5.442 7.624.146.326.288.668.428 1.034 1.925-.441 3.669-1.024 5.134-1.716a17.971 17.971 0 0 0-11.004-6.942zM16.401 33.83a.996.996 0 0 1-.819-.426A19.768 19.768 0 0 1 12 22.05a1 1 0 0 1 .967-1c.835-.027 6.596-.03 9.033-.03a1 1 0 0 1 1 1c0 1.059.074 2.129.221 3.182.036.255.071.511.127.767a.905.905 0 0 1 .019.127c.015.097.034.2.06.295a.768.768 0 0 1 .019.083.971.971 0 0 1 .029.152c.014.114.041.221.067.333.007.027.023.104.028.132.011.071.025.147.053.224a.874.874 0 0 1 .04.15c.045.237.106.474.177.711a22.2 22.2 0 0 0 .625 1.916 1.003 1.003 0 0 1-.744 1.341c-2.663.515-5.03 1.303-6.848 2.279a.995.995 0 0 1-.472.118zm-2.375-10.793.002.047a17.78 17.78 0 0 0 2.713 8.455c1.571-.744 3.431-1.367 5.47-1.832a31.347 31.347 0 0 1-.293-.973 9.106 9.106 0 0 1-.207-.828 3.193 3.193 0 0 1-.12-.517 4.336 4.336 0 0 1-.097-.476l-.005-.024a4.563 4.563 0 0 1-.109-.557c-.059-.285-.1-.57-.14-.855a25.266 25.266 0 0 1-.22-2.458c-3.244.002-5.686.008-6.994.018z" fill="#ffffff" class="color000000 svgShape"></path><path d="m51 23.05-9.002-.02a1 1 0 0 1-.998-1c0-.391-.009-.743-.028-1.095-.011-.312-.028-.6-.057-.888-.021-.278-.05-.525-.078-.771-.029-.263-.068-.521-.106-.779l-.03-.218a14.352 14.352 0 0 0-.166-.868 1.098 1.098 0 0 1-.017-.1 6.344 6.344 0 0 1-.036-.19 25.02 25.02 0 0 0-.433-1.684l-.05-.148a9.443 9.443 0 0 0-.24-.741h.001l-.019-.051a1 1 0 0 1 .74-1.327c2.724-.551 5.131-1.381 6.961-2.403a.997.997 0 0 1 1.324.326A19.918 19.918 0 0 1 52 22v.05a1 1 0 0 1-1 1zm-8.021-2.018 6.999.016-.007-.134a17.915 17.915 0 0 0-2.403-7.957c-1.598.783-3.5 1.44-5.595 1.934.215.748.359 1.318.476 1.874.023.118.037.187.046.244.071.319.132.646.184.975l.032.229a23.735 23.735 0 0 1 .197 1.662c.03.31.052.642.062.974l.009.183z" fill="#ffffff" class="color000000 svgShape"></path><path d="M47.599 33.83c-.16 0-.322-.039-.472-.119-1.817-.976-4.185-1.764-6.848-2.279a1 1 0 0 1-.746-1.336A22.668 22.668 0 0 0 41 22.03a.996.996 0 0 1 1-1h.002l8.998.02a1 1 0 0 1 1 1 19.763 19.763 0 0 1-3.582 11.355.997.997 0 0 1-.819.425zm-5.808-4.123c2.038.465 3.897 1.088 5.468 1.832a17.78 17.78 0 0 0 2.713-8.457l.002-.034-6.993-.016a24.686 24.686 0 0 1-1.19 6.675z" fill="#ffffff" class="color000000 svgShape"></path><path d="M32.09 42a1 1 0 0 1-.541-1.84c3.265-2.103 5.864-5.188 7.518-8.924.16-.369.323-.752.467-1.135a1.003 1.003 0 0 1 1.127-.632c2.857.553 5.421 1.411 7.412 2.481a1.002 1.002 0 0 1 .35 1.45 19.99 19.99 0 0 1-16.327 8.601L32.09 42zm8.997-10.401-.189.441c-1.31 2.957-3.161 5.544-5.44 7.625a17.992 17.992 0 0 0 10.625-6.466c-1.438-.649-3.135-1.192-4.996-1.6zM31.98 16c-3.13 0-6.112-.293-8.865-.872a1 1 0 0 1-.74-1.304c.238-.694.479-1.307.731-1.873 1.811-4.09 4.668-7.477 8.263-9.792C31.994 1.757 33 2.256 33 3l-.02 12a1 1 0 0 1-1 1zm-7.312-2.608a41.66 41.66 0 0 0 6.313.598l.015-9.112c-2.584 2.028-4.662 4.725-6.062 7.887-.09.201-.179.409-.266.627z" fill="#ffffff" class="color000000 svgShape"></path><path d="M32 16c-.553 0-1.02-.448-1.02-1L31 3a1 1 0 0 1 1-1c.192 0 .47.055.631.159 3.595 2.315 6.452 5.702 8.264 9.796.252.563.492 1.175.73 1.869a1 1 0 0 1-.74 1.304C38.132 15.707 35.143 16 32 16zm.995-11.129-.015 9.119a41.82 41.82 0 0 0 6.352-.598 16.93 16.93 0 0 0-.265-.623C37.665 9.6 35.585 6.9 32.995 4.871z" fill="#ffffff" class="color000000 svgShape"></path><path d="M31.97 23.03h-.003c-3.479-.01-6.958-.01-9.967-.01a1 1 0 0 1-1-1c0-2.828.463-5.58 1.376-8.199a1.003 1.003 0 0 1 1.149-.649c2.62.549 5.463.828 8.455.828a1 1 0 0 1 1 1c0 2.242 0 4.643-.011 7.034a.999.999 0 0 1-.999.996zm-8.949-2.01c2.466 0 5.196.001 7.953.007.006-1.707.007-3.406.007-5.038a43.253 43.253 0 0 1-6.985-.688 22.754 22.754 0 0 0-.975 5.719z" fill="#ffffff" class="color000000 svgShape"></path><path d="M42 23.03H31.97a.998.998 0 0 1-1-1.004c.01-2.389.01-4.787.01-7.026a1 1 0 0 1 1-1c3.024 0 5.875-.279 8.494-.829a.997.997 0 0 1 1.168.705l.003.007c.094.271.177.531.261.803l.055.165c.222.768.369 1.348.487 1.914.023.118.037.187.046.244.071.319.132.646.184.975l.032.229a23.735 23.735 0 0 1 .197 1.662c.03.31.052.642.062.974.02.364.031.753.031 1.151v.03a1 1 0 0 1-1 1zm-9.026-2h8.003l-.005-.095c-.011-.312-.028-.6-.057-.888-.021-.278-.05-.525-.078-.771-.029-.263-.068-.521-.106-.779l-.03-.218a14.352 14.352 0 0 0-.166-.868 1.098 1.098 0 0 1-.017-.1 6.344 6.344 0 0 1-.036-.19 25.02 25.02 0 0 0-.433-1.684l-.045-.135c-2.213.409-4.568.64-7.023.688-.001 1.632-.002 3.332-.007 5.04zM32 42h-.09a.997.997 0 0 1-.541-.159c-3.595-2.315-6.452-5.702-8.264-9.796-.18-.412-.356-.828-.512-1.245a1 1 0 0 1 .738-1.33c2.711-.551 5.617-.83 8.639-.83a1 1 0 0 1 1 1V33c0 4.441.012 7.563.029 7.955A1.002 1.002 0 0 1 32 42zm-7.078-10.792.015.032c1.395 3.151 3.466 5.842 6.044 7.87-.01-2.002-.011-4.95-.011-6.11v-2.349a41.9 41.9 0 0 0-6.048.557z" fill="#ffffff" class="color000000 svgShape"></path><path d="M32.09 42c-.534 0-1.064-.42-1.089-.955-.029-.64-.031-6.32-.031-8.045v-3.36a1 1 0 0 1 1-1c3.062 0 5.978.279 8.698.83a1 1 0 0 1 .739 1.33c-.155.417-.332.833-.509 1.239-1.814 4.099-4.672 7.486-8.267 9.801a.99.99 0 0 1-.541.16zm.88-11.35V33c0 2.588.004 4.728.011 6.141 2.596-2.031 4.682-4.734 6.086-7.906l.011-.026a42.158 42.158 0 0 0-6.108-.559z" fill="#ffffff" class="color000000 svgShape"></path><path d="M31.91 42h-.005a19.985 19.985 0 0 1-16.327-8.601.998.998 0 0 1 .35-1.45c1.991-1.07 4.555-1.928 7.412-2.481.48-.09.955.174 1.127.632.144.383.307.767.47 1.141 1.65 3.73 4.25 6.816 7.515 8.918A1 1 0 0 1 31.91 42zm-13.992-8.802a17.99 17.99 0 0 0 10.625 6.466c-2.279-2.081-4.131-4.667-5.438-7.62a35.206 35.206 0 0 1-.192-.446c-1.861.409-3.558.952-4.995 1.6zm5.403-18.048a.96.96 0 0 1-.199-.02c-2.924-.591-5.53-1.496-7.539-2.617a1 1 0 0 1-.35-1.42C18.929 5.43 25.161 2.03 31.905 2h.005a1 1 0 0 1 .541 1.841c-3.265 2.103-5.864 5.188-7.518 8.924a21.06 21.06 0 0 0-.668 1.711.999.999 0 0 1-.944.674zm-5.777-3.877c1.465.691 3.209 1.275 5.134 1.716.14-.366.282-.709.429-1.038 1.308-2.953 3.16-5.539 5.441-7.62a17.971 17.971 0 0 0-11.004 6.942z" fill="#ffffff" class="color000000 svgShape"></path><path d="M13 23.05a1 1 0 0 1-1-1c0-.448.01-.845.031-1.244a19.941 19.941 0 0 1 3.202-9.713.998.998 0 0 1 1.324-.326c1.83 1.021 4.237 1.852 6.961 2.403a1.002 1.002 0 0 1 .746 1.309A22.82 22.82 0 0 0 23 22c0 .552-.447 1.02-1 1.02-5.057 0-8.409.011-8.967.029L13 23.05zm3.433-10.093a17.927 17.927 0 0 0-2.41 8.08c1.697-.013 4.891-.016 6.997-.017.081-2.097.42-4.147 1.011-6.129-2.096-.493-4-1.151-5.598-1.934z" fill="#ffffff" class="color000000 svgShape"></path><path d="M23.529 31.45c-.406 0-.781-.249-.933-.641a24.372 24.372 0 0 1-.679-2.076 9.106 9.106 0 0 1-.207-.828 3.218 3.218 0 0 1-.12-.517 4.336 4.336 0 0 1-.097-.476l-.005-.023a4.563 4.563 0 0 1-.109-.557c-.059-.285-.1-.57-.14-.855A25.346 25.346 0 0 1 21 22.02a1 1 0 0 1 1-1c3.011 0 6.492 0 9.973.01a1 1 0 0 1 .997 1v7.61a1 1 0 0 1-1 1c-2.888 0-5.66.266-8.24.79a.986.986 0 0 1-.201.02zm-.085-4.976a.971.971 0 0 1 .029.152c.014.114.041.221.067.333.007.027.023.104.028.132.011.071.025.147.053.224a.874.874 0 0 1 .04.15c.045.237.106.474.177.711.119.419.232.791.345 1.131a43.609 43.609 0 0 1 6.786-.657v-5.623c-2.756-.006-5.483-.007-7.948-.007.032.729.099 1.46.199 2.182.036.255.071.511.127.767a.905.905 0 0 1 .019.127c.015.097.034.2.06.296a.748.748 0 0 1 .018.082z" fill="#ffffff" class="color000000 svgShape"></path><path d="M40.471 31.45a.96.96 0 0 1-.199-.02c-2.591-.524-5.374-.79-8.271-.79-.553 0-1.03-.448-1.03-1v-7.61a1 1 0 0 1 1-1H42a1 1 0 0 1 1 1 24.7 24.7 0 0 1-1.595 8.774.999.999 0 0 1-.934.646zm-7.501-2.8c2.384.048 4.674.268 6.847.657a22.646 22.646 0 0 0 1.162-6.278H32.97v5.621z" fill="#ffffff" class="color000000 svgShape"></path></svg>